<mxfile host="app.diagrams.net" modified="2022-06-12T13:42:39.460Z" agent="5.0 (X11; Linux x86_64) AppleWebKit/537.36 (KHTML, like Gecko) Chrome/102.0.5005.115 Safari/537.36" etag="51ypkmz7Tw7usHEsHbLw" version="20.0.0" type="github">
  <diagram id="k4S6TAXFEj1f-I_9jxmt" name="Page-1">
    <mxGraphModel dx="1262" dy="807" grid="1" gridSize="10" guides="1" tooltips="1" connect="1" arrows="1" fold="1" page="1" pageScale="1" pageWidth="827" pageHeight="1169" math="0" shadow="0">
      <root>
        <mxCell id="0" />
        <mxCell id="1" parent="0" />
        <mxCell id="gMAMi1ND5IYVRVYwKoXf-45" value="" style="rounded=1;whiteSpace=wrap;html=1;fontSize=15;fontColor=#000000;fillColor=default;gradientColor=none;strokeColor=default;shadow=1;glass=0;sketch=0;" vertex="1" parent="1">
          <mxGeometry x="810" y="61" width="150" height="148" as="geometry" />
        </mxCell>
        <mxCell id="gMAMi1ND5IYVRVYwKoXf-44" value="" style="rounded=1;whiteSpace=wrap;html=1;fontSize=15;fontColor=#000000;fillColor=default;gradientColor=none;strokeColor=default;shadow=1;glass=0;sketch=0;" vertex="1" parent="1">
          <mxGeometry x="610" y="61" width="150" height="148" as="geometry" />
        </mxCell>
        <mxCell id="gMAMi1ND5IYVRVYwKoXf-43" value="" style="rounded=1;whiteSpace=wrap;html=1;fontSize=15;fontColor=#000000;fillColor=default;gradientColor=none;strokeColor=default;shadow=1;glass=0;sketch=0;" vertex="1" parent="1">
          <mxGeometry x="410" y="61" width="150" height="148" as="geometry" />
        </mxCell>
        <mxCell id="gMAMi1ND5IYVRVYwKoXf-42" value="" style="rounded=1;whiteSpace=wrap;html=1;fontSize=15;fontColor=#000000;fillColor=default;gradientColor=none;strokeColor=default;shadow=1;glass=0;sketch=0;" vertex="1" parent="1">
          <mxGeometry x="210" y="61" width="150" height="148" as="geometry" />
        </mxCell>
        <mxCell id="gMAMi1ND5IYVRVYwKoXf-41" value="" style="rounded=1;whiteSpace=wrap;html=1;fontSize=15;fontColor=#000000;fillColor=default;gradientColor=none;strokeColor=default;shadow=1;glass=0;sketch=0;" vertex="1" parent="1">
          <mxGeometry x="10" y="61" width="150" height="148" as="geometry" />
        </mxCell>
        <mxCell id="gMAMi1ND5IYVRVYwKoXf-31" value="" style="rounded=1;whiteSpace=wrap;html=1;fontSize=15;fontColor=#000000;fillColor=default;gradientColor=none;strokeColor=default;shadow=1;glass=0;sketch=0;" vertex="1" parent="1">
          <mxGeometry x="20" y="490" width="160" height="190" as="geometry" />
        </mxCell>
        <mxCell id="gMAMi1ND5IYVRVYwKoXf-25" value="" style="rounded=1;whiteSpace=wrap;html=1;fontSize=15;fontColor=#000000;fillColor=default;gradientColor=none;strokeColor=default;shadow=1;glass=0;sketch=0;" vertex="1" parent="1">
          <mxGeometry x="350" y="490" width="160" height="190" as="geometry" />
        </mxCell>
        <mxCell id="gMAMi1ND5IYVRVYwKoXf-16" value="Node / Flask / React App" style="aspect=fixed;html=1;points=[];align=center;image;fontSize=12;image=img/lib/azure2/general/Code.svg;fontColor=#000000;" vertex="1" parent="1">
          <mxGeometry x="75.38" y="520" width="49.23" height="40" as="geometry" />
        </mxCell>
        <mxCell id="gMAMi1ND5IYVRVYwKoXf-18" value="Dockerfile" style="verticalLabelPosition=bottom;html=1;verticalAlign=top;align=center;strokeColor=none;fillColor=#00BEF2;shape=mxgraph.azure.file_2;pointerEvents=1;fontSize=15;fontColor=#000000;" vertex="1" parent="1">
          <mxGeometry x="85" y="600" width="30" height="38" as="geometry" />
        </mxCell>
        <mxCell id="gMAMi1ND5IYVRVYwKoXf-19" value="Docker Image" style="aspect=fixed;perimeter=ellipsePerimeter;html=1;align=center;shadow=0;dashed=0;spacingTop=3;image;image=img/lib/active_directory/cd_dvd.svg;fontSize=15;fontColor=#000000;" vertex="1" parent="1">
          <mxGeometry x="395" y="530" width="70" height="70" as="geometry" />
        </mxCell>
        <mxCell id="gMAMi1ND5IYVRVYwKoXf-22" value="BUILD" style="html=1;shadow=1;dashed=0;align=center;verticalAlign=middle;shape=mxgraph.arrows2.arrow;dy=0.6;dx=40;notch=0;fontSize=15;fontColor=#000000;sketch=0;" vertex="1" parent="1">
          <mxGeometry x="220" y="550" width="100" height="70" as="geometry" />
        </mxCell>
        <mxCell id="gMAMi1ND5IYVRVYwKoXf-24" value="RUN" style="html=1;shadow=1;dashed=0;align=center;verticalAlign=middle;shape=mxgraph.arrows2.arrow;dy=0.6;dx=40;notch=0;fontSize=15;fontColor=#000000;" vertex="1" parent="1">
          <mxGeometry x="550" y="550" width="100" height="70" as="geometry" />
        </mxCell>
        <mxCell id="gMAMi1ND5IYVRVYwKoXf-26" value="" style="rounded=1;whiteSpace=wrap;html=1;fontSize=15;fontColor=#000000;fillColor=default;gradientColor=none;strokeColor=default;shadow=1;glass=0;sketch=0;" vertex="1" parent="1">
          <mxGeometry x="680" y="490" width="160" height="190" as="geometry" />
        </mxCell>
        <mxCell id="gMAMi1ND5IYVRVYwKoXf-28" value="Docker Container" style="shape=image;html=1;verticalAlign=top;verticalLabelPosition=bottom;labelBackgroundColor=#ffffff;imageAspect=0;aspect=fixed;image=https://cdn1.iconfinder.com/data/icons/unicons-line-vol-3/24/docker-128.png;rounded=1;shadow=1;glass=0;sketch=0;fontSize=15;fontColor=#000000;strokeColor=default;fillColor=#3399FF;gradientColor=none;" vertex="1" parent="1">
          <mxGeometry x="717" y="528" width="90" height="90" as="geometry" />
        </mxCell>
        <mxCell id="gMAMi1ND5IYVRVYwKoXf-36" value="Source Code" style="verticalLabelPosition=bottom;html=1;verticalAlign=top;align=center;strokeColor=none;fillColor=#00BEF2;shape=mxgraph.azure.github_code;pointerEvents=1;rounded=1;shadow=1;glass=0;sketch=0;fontSize=15;fontColor=#000000;" vertex="1" parent="1">
          <mxGeometry x="60" y="104" width="50" height="50" as="geometry" />
        </mxCell>
        <mxCell id="gMAMi1ND5IYVRVYwKoXf-37" value="Dependencies" style="sketch=0;pointerEvents=1;shadow=0;dashed=0;html=1;strokeColor=none;fillColor=#505050;labelPosition=center;verticalLabelPosition=bottom;verticalAlign=top;outlineConnect=0;align=center;shape=mxgraph.office.concepts.list_library;rounded=1;glass=0;fontSize=15;fontColor=#000000;" vertex="1" parent="1">
          <mxGeometry x="259" y="106" width="52" height="48" as="geometry" />
        </mxCell>
        <mxCell id="gMAMi1ND5IYVRVYwKoXf-38" value="&lt;font style=&quot;font-size: 15px;&quot;&gt;Runtime&lt;/font&gt;" style="sketch=0;outlineConnect=0;fontColor=#232F3E;gradientColor=none;fillColor=#3F8624;strokeColor=none;dashed=0;verticalLabelPosition=bottom;verticalAlign=top;align=center;html=1;fontSize=12;fontStyle=0;aspect=fixed;pointerEvents=1;shape=mxgraph.aws4.house;rounded=1;shadow=1;glass=0;" vertex="1" parent="1">
          <mxGeometry x="456" y="96" width="58" height="58" as="geometry" />
        </mxCell>
        <mxCell id="gMAMi1ND5IYVRVYwKoXf-39" value="Configuration" style="shape=image;html=1;verticalAlign=top;verticalLabelPosition=bottom;labelBackgroundColor=#ffffff;imageAspect=0;aspect=fixed;image=https://cdn3.iconfinder.com/data/icons/strokeline/128/25_icons-128.png;rounded=1;shadow=1;glass=0;sketch=0;fontSize=15;fontColor=#000000;strokeColor=default;fillColor=#3399FF;gradientColor=none;" vertex="1" parent="1">
          <mxGeometry x="659.5" y="103" width="51" height="51" as="geometry" />
        </mxCell>
        <mxCell id="gMAMi1ND5IYVRVYwKoXf-40" value="Server" style="aspect=fixed;perimeter=ellipsePerimeter;html=1;align=center;shadow=0;dashed=0;spacingTop=3;image;image=img/lib/active_directory/web_server.svg;rounded=1;glass=0;sketch=0;fontSize=15;fontColor=#000000;strokeColor=default;fillColor=#3399FF;gradientColor=none;" vertex="1" parent="1">
          <mxGeometry x="865" y="100" width="40" height="50" as="geometry" />
        </mxCell>
        <mxCell id="gMAMi1ND5IYVRVYwKoXf-54" value="&lt;font style=&quot;font-size: 18px;&quot;&gt;Frontend&lt;/font&gt;" style="rounded=1;whiteSpace=wrap;html=1;shadow=1;glass=0;sketch=0;fontSize=9;fontColor=#000000;strokeColor=default;fillColor=#66B2FF;gradientColor=none;" vertex="1" parent="1">
          <mxGeometry x="90" y="1030" width="120" height="60" as="geometry" />
        </mxCell>
        <mxCell id="gMAMi1ND5IYVRVYwKoXf-56" value="&lt;font style=&quot;font-size: 18px;&quot;&gt;Backend&lt;/font&gt;" style="rounded=1;whiteSpace=wrap;html=1;shadow=1;glass=0;sketch=0;fontSize=9;fontColor=#000000;strokeColor=default;fillColor=#66B2FF;gradientColor=none;" vertex="1" parent="1">
          <mxGeometry x="90" y="930" width="120" height="60" as="geometry" />
        </mxCell>
        <mxCell id="gMAMi1ND5IYVRVYwKoXf-58" value="&lt;font style=&quot;font-size: 16px;&quot;&gt;80&lt;/font&gt;" style="ellipse;whiteSpace=wrap;html=1;aspect=fixed;rounded=1;shadow=1;glass=0;sketch=0;fontSize=18;fontColor=#000000;strokeColor=default;fillColor=default;gradientColor=none;" vertex="1" parent="1">
          <mxGeometry x="334" y="1020" width="80" height="80" as="geometry" />
        </mxCell>
        <mxCell id="gMAMi1ND5IYVRVYwKoXf-65" value="&lt;font style=&quot;font-size: 16px;&quot;&gt;8081&lt;/font&gt;" style="ellipse;whiteSpace=wrap;html=1;aspect=fixed;rounded=1;shadow=1;glass=0;sketch=0;fontSize=18;fontColor=#000000;strokeColor=default;fillColor=default;gradientColor=none;" vertex="1" parent="1">
          <mxGeometry x="334" y="920" width="80" height="80" as="geometry" />
        </mxCell>
        <mxCell id="gMAMi1ND5IYVRVYwKoXf-71" value="&lt;font style=&quot;font-size: 18px;&quot;&gt;Database&lt;br&gt;&lt;/font&gt;" style="rounded=1;whiteSpace=wrap;html=1;shadow=1;glass=0;sketch=0;fontSize=9;fontColor=#000000;strokeColor=default;fillColor=#66B2FF;gradientColor=none;" vertex="1" parent="1">
          <mxGeometry x="90.00000000000001" y="830" width="120" height="60" as="geometry" />
        </mxCell>
        <mxCell id="gMAMi1ND5IYVRVYwKoXf-74" value="&lt;font style=&quot;font-size: 16px;&quot;&gt;3306&lt;/font&gt;" style="ellipse;whiteSpace=wrap;html=1;aspect=fixed;rounded=1;shadow=1;glass=0;sketch=0;fontSize=18;fontColor=#000000;strokeColor=default;fillColor=default;gradientColor=none;" vertex="1" parent="1">
          <mxGeometry x="334" y="820" width="80" height="80" as="geometry" />
        </mxCell>
        <mxCell id="gMAMi1ND5IYVRVYwKoXf-78" value="" style="html=1;shadow=0;dashed=0;align=center;verticalAlign=middle;shape=mxgraph.arrows2.arrow;dy=0.67;dx=20;notch=0;rounded=1;glass=0;sketch=0;fontSize=16;fontColor=#000000;strokeColor=default;fillColor=default;gradientColor=none;" vertex="1" parent="1">
          <mxGeometry x="220" y="950" width="100" height="20" as="geometry" />
        </mxCell>
        <mxCell id="gMAMi1ND5IYVRVYwKoXf-80" value="" style="html=1;shadow=0;dashed=0;align=center;verticalAlign=middle;shape=mxgraph.arrows2.arrow;dy=0.67;dx=20;notch=0;rounded=1;glass=0;sketch=0;fontSize=16;fontColor=#000000;strokeColor=default;fillColor=default;gradientColor=none;" vertex="1" parent="1">
          <mxGeometry x="220" y="1050" width="100" height="20" as="geometry" />
        </mxCell>
        <mxCell id="gMAMi1ND5IYVRVYwKoXf-81" value="" style="html=1;shadow=0;dashed=0;align=center;verticalAlign=middle;shape=mxgraph.arrows2.arrow;dy=0.67;dx=20;notch=0;rounded=1;glass=0;sketch=0;fontSize=16;fontColor=#000000;strokeColor=default;fillColor=default;gradientColor=none;" vertex="1" parent="1">
          <mxGeometry x="220" y="850" width="100" height="20" as="geometry" />
        </mxCell>
      </root>
    </mxGraphModel>
  </diagram>
</mxfile>
